<svg fill="#000000" viewBox="0 0 1024 1024" xmlns="http://www.w3.org/2000/svg"><g transform="translate(-214.95981,-319.12584)"><path d="M1223.9,733.5c-3.5-5.8-9.8-6.2-12.6-6.4H808.2c-11.4,0-20.6,3.5-27.5,10.3c-4.9,4.9-8.2,11.2-10,18.9c-0.1,0.3-0.6,1.8-4,1.8h-79.7c-3.4,0-3.9-1.6-4-1.8c-1.7-7.7-5.1-14-10-18.9c-6.8-6.8-16.1-10.3-27.4-10.3H242.6c-2.6,0.1-9,0.5-12.5,6.4c-1.7,2.8-2.9,7.6,0.7,14.3l7.4,12.3c3,4.9,6.5,6.7,13.7,7.2c0.1,0,3.5,0.3,5.8,4.4l7.5,13.2c1.6,3,5.3,10.1,18.1,11.9c0.2,0,3.9,0.4,6,4.3l9.3,16.3c2.7,5.2,6.5,7.2,13.4,9.3l168.6,49.5c5.7,1.7,8.1,8.2,8.1,8.2c4,10.4,9.2,19,35.6,26.9l137.9,37.6c1.7,0.6,17.5,5.4,29.4-6.1l32.4-30.9s1.3-1.3,3.1-1.3c1.8,0,3.2,1.4,3.2,1.4l32.3,30.8c11.9,11.5,27.7,6.7,29.5,6.1l137.9-37.6c26.3-7.9,31.7-16.7,35.5-26.9c0.2-0.4,2.4-6.5,8.1-8.2l168.6-49.5c6.9-2.1,10.7-4.1,13.4-9.3l9.2-16.2c2.1-4,5.7-4.4,5.9-4.5c12.9-1.7,16.6-8.8,18.2-11.9l7.5-13.2c2.3-4.1,5.7-4.4,5.9-4.4c7.2-0.5,10.7-2.3,13.7-7.2l7.4-12.3c1.6-2.9,2.3-5.6,2.3-8.2C1225.5,737.4,1225,735.3,1223.9,733.5"/><path d="M718.7,444.4H304.5v58.1l0.1,0.1h414.2V444.4z M342.3,493.3v-0.4c-2-5.7-3.8-10.3-5.7-14.5h-13.8c-0.1,0.2-0.4,0.7-0.4,0.7c-1.8,4.5-3.5,9-5,13.8v0.4h-5l17.6-39.4h1.9l16.9,39.4H342.3z M360.5,494.1c-2.6,0-7.2-1.1-9.2-3.4h-0.4l1.1-5.4h1.1c2.5,3.9,5.1,5.7,8.8,5.7c4.1,0,7.7-3.7,7.7-8.1c0-4.7-4-6.1-8.1-7.7c-4.5-1.8-9.5-3.8-9.5-10.7c0-6.6,4.9-10.7,12.7-10.7c2.5,0,6.1,0.6,8.5,2.6l-1.6,5h-1.1c-1.1-2.9-3.4-4.6-6.5-4.6c-3.8,0-6.8,2.6-6.8,6.1c0,4.7,3.9,6,8.1,7.7c4.7,1.9,9.5,4,9.5,10.4C374.7,488.7,368.8,494.1,360.5,494.1z M394.5,493.3h-5.4V458c-5.2,0-8.5,0-11.8,0.4h-0.4v-3.8H406h0.4v3.8H406c-3.5-0.4-7.6-0.4-11.5-0.4V493.3z M425.9,494.1c-12.4,0-21.1-8.3-21.1-20.3c0-11.9,8.7-19.9,21.1-19.9c10.7,0,21.5,5.7,21.5,19.2C447.4,485.5,438.9,494.1,425.9,494.1z M486.5,493.3h-1.9l-3.1-3.4l-24.2-26.5v29.9h-3.8v-38.7h2.7l26.5,28.7v-28.7h3.4h0.4V493.3z"/></g></svg>
