<svg xmlns="http://www.w3.org/2000/svg" viewBox="0 0 1000 759.514" fill="#020A0A"><path d="M82.41 224.7s.67 2.02 2.02 5.72h831.48c1.35-3.7 2.02-5.72 2.02-5.72 3.36-10.76 6.39-21.19 8.74-30.95 30.61-125.13-14.46-148-129.16-170.2C709.39 6.4 591.32-.32 500.17.01 409.02-.32 290.95 6.4 202.83 23.56 88.13 45.76 43.05 68.63 73.66 193.76c2.36 9.76 5.38 20.18 8.75 30.94zm804.91-16.82c-1.35 5.38-2.69 11.1-4.37 16.82H117.05c-1.68-5.72-3.03-11.1-4.37-16.82-12.45-52.47-12.11-83.75 1.35-104.61 15.81-23.88 49.11-33.64 108.98-44.06 81.4-14.13 197.78-20.52 276.82-20.52s195.43 6.39 276.83 20.52c59.87 10.43 93.17 20.18 108.98 44.06 13.79 20.86 13.46 52.14 1.08 104.61zM209.22 30.62C295.33 13.8 410.7 7.08 499.83 7.75c89.14-.34 204.51 6.05 290.62 22.87 112.34 21.86 157.08 43.05 127.14 166.16-2.36 9.08-4.71 18.5-7.74 27.92h-6.73c2.35-8.07 4.71-15.81 6.39-23.55 29.26-121.43-14.46-141.94-124.79-163.81-84.43-16.48-197.44-23.21-284.9-22.54-87.45-.34-200.47 6.05-285.23 22.54C104.27 58.88 60.55 79.73 89.81 201.16c1.68 7.74 4.04 15.47 6.39 23.55h-6.73c-3.03-9.42-5.72-18.84-7.74-27.92C52.14 73.67 96.87 52.48 209.22 30.62z"/><path d="M173.56 419.79c1.01 2.02 2.36 3.7 3.36 5.72 43.39 72.65 96.2 146.65 152.03 212.24 93.51 110.33 152.71 120.75 167.17 121.76 1.01 0 2.36 0 3.7 0s2.36 0 3.7 0c14.46-.67 73.66-11.44 167.17-121.76 55.84-65.93 108.64-139.59 152.03-212.24 1.01-2.02 2.36-3.7 3.36-5.72H173.56zm552.3 6.05h37.34v50.45c-12.11 19.17-24.55 38.01-37.34 56.51V425.84zm-81.4 0h37.34v166.16c-9.42 12.11-19.17 23.88-28.93 34.98-3.03 3.36-5.72 6.39-8.41 9.75V425.84zm-81.73 0h37.34v255.63c-13.46 12.11-25.9 22.2-37.34 29.94V425.84zm-81.4 0h37.34v309.12s-9.42 3.36-18.84 3.36-18.84-3.36-18.84-3.36c.34-14.8.34-309.12.34-309.12zm-81.73 0h37.34v285.57c-11.44-8.07-23.88-17.83-37.34-29.94V425.84zm-81.4 0h37.34v210.9c-2.69-3.03-5.72-6.39-8.41-9.75-9.75-11.44-19.51-22.87-28.93-34.98V425.84zm-81.74 0h37.34v106.96c-12.78-18.5-25.56-37.34-37.34-56.51V425.84zm651.21 0c-42.38 71.31-93.84 143.63-148.33 208.21-91.49 107.97-149.35 118.74-163.81 119.74-1.01 0-2.35 0-3.7 0s-2.35 0-3.7 0c-14.46-1.01-72.32-11.44-163.81-119.74-54.49-64.58-105.95-136.9-148.33-208.21h5.38c41.71 70.64 92.5 142.28 146.32 206.19 89.81 106.29 146.32 117.05 160.44 117.73 1.01 0 2.36 0 3.7 0s2.36 0 3.7 0c14.13-1.01 70.97-11.44 160.44-117.73 53.82-63.91 104.61-135.55 146.32-206.19h5.38z"/><path d="M0 224.7v201.14h1000V224.7H0zm994.28 195.09H5.72V230.42h988.56v189.37z"/><path d="M113.01 336.71h35.65l-18.5-40.03-17.15 40.03zM505.54 273.13h-2.02v48.1h2.35c15.14 0 28.25-5.72 28.25-23.55 0-13.12-3.7-24.55-28.58-24.55z"/><path d="M13.78 238.49v173.56h972.42V238.49H13.78zm207.54 147.33h-74.34v-7.4l19.85-2.69-12.78-27.25h-46.08l-11.44 26.91 20.52 3.03v7.4H55.49v-7.4l19.85-3.03 52.81-114.03h16.48l56.51 114.03 19.84 3.03v7.4zm177.94-117.06l-19.85 2.69s0 65.59 0 66.26c.34 16.15-4.04 27.25-11.1 34.98-10.76 11.44-26.57 14.8-47.09 14.8-23.21 0-42.04-2.35-54.49-17.83-7.06-8.74-8.75-20.52-8.75-30.94 0-1.35 0-67.61 0-67.61l-19.84-2.69v-7.4h73.33v7.4l-19.85 2.69s0 39.69 0 67.61c.34 26.91 12.44 34.98 33.97 34.98 20.85 0 33.3-8.74 33.97-33.3.34-23.55 0-69.29 0-69.29l-19.85-2.69v-7.4h59.54v7.74zm204.5 117.06h-23.21c-18.16 0-27.58-6.39-34.31-14.8-2.02-2.69-15.14-20.85-20.85-28.93-2.69-3.7-6.39-9.08-14.46-9.08h-7.4v42.72l19.84 2.69v7.4h-72.32v-7.4l19.85-2.69V271.79l-19.85-2.69v-7.4h66.26c2.02 0 3.7 0 5.72.34 27.92 1.01 43.73 15.81 43.73 34.65 0 13.79-6.73 22.87-22.2 28.59 2.02.34 5.05 1.68 7.4 3.36 1.01.67 2.02 1.68 3.36 3.03 9.08 10.43 26.24 34.31 28.93 37.34 3.03 3.7 8.41 7.4 12.45 8.41 4.04 1.01 7.06 1.01 7.06 1.01v7.4zm194.36-117.06l-19.84 2.69s0 65.59 0 66.26c.34 16.15-4.04 27.25-11.1 34.98-10.76 11.44-26.57 14.8-47.09 14.8-23.21 0-42.04-2.35-54.49-17.83-7.06-8.74-8.41-20.52-8.41-30.94 0-1.35 0-67.61 0-67.61l-19.85-2.69v-7.4h73.33v7.4l-19.85 2.69s0 39.69 0 67.61c.34 26.91 12.45 34.98 33.97 34.98 20.85 0 33.3-8.74 33.97-33.3.34-23.55 0-69.29 0-69.29l-19.84-2.69v-7.4h59.54v7.74zm141.95 100.57c-3.03 5.72-8.07 9.76-15.14 13.46-7.06 3.7-20.18 5.38-30.27 5.38s-43.05-1.34-43.05-1.34l-1.68-34.65h8.41l5.72 19.85c1.35 1.01 13.79 3.7 23.21 3.7 10.76 0 21.19-3.03 24.56-8.75 3.03-5.04 3.36-14.8-5.05-20.52-6.73-4.71-29.6-18.84-40.36-25.9-4.37-3.03-15.14-11.1-15.14-27.58 0-15.14 12.11-23.55 18.84-26.91 7.74-3.7 19.51-5.04 28.26-5.04h.67c9.42 0 36.66 1.68 36.66 1.68v33.64h-7.06l-4.37-19.85c-4.04-2.02-16.48-4.37-25.9-3.36-11.44 1.35-16.82 7.4-16.82 13.12 0 6.73 4.04 11.1 7.06 13.12 8.07 5.05 28.25 17.49 39.02 24.89 8.07 5.72 15.81 15.81 15.81 28.93.34 4.04-1.01 8.08-4.04 13.47z"/><path d="M500.84 131.17c-.67 0-1.01.34-1.34.67l-14.46 26.24c-1.35 2.35-2.69 4.37-4.04 6.39l-19.85-5.72 5.72 19.85c-2.02 1.34-4.37 3.03-6.39 4.04l-13.79 7.74c-8.07 0-16.15.34-24.22.34-5.04 0-9.75 0-14.46.34-13.12 0-25.56.34-38.01.67h-5.72c-13.45.34-26.24.67-39.02 1.35-19.17.67-38.34 1.34-58.53 2.69-4.71.34-8.75.34-12.11.67-1.68 0-3.03.34-4.04.34-2.69.34-4.37.34-4.37 2.02s1.35 1.68 4.37 2.02l3.7.34c3.36.34 7.74.67 12.45.67 19.51 1.01 39.02 2.02 58.53 2.69 12.11.34 25.23 1.01 39.02 1.35l8.07.34c11.44.34 23.55.67 35.65.67 4.71 0 9.75 0 14.46.34 8.07 0 16.15.34 24.22.34l14.13 7.74c2.36 1.35 4.37 2.69 6.39 4.04l-5.72 19.85 19.85-5.72c1.34 2.02 3.03 4.37 4.04 6.39l14.46 26.24c.34.34.67.67 1.34.67.67 0 1.01-.34 1.35-.67l14.46-26.24c1.35-2.36 2.69-4.37 4.04-6.39l19.84 5.72-6.73-20.52c2.02-1.34 4.37-3.03 6.39-4.04l14.13-7.74c8.07 0 16.15-.34 24.22-.34 5.05 0 9.76 0 14.46-.34 12.11 0 24.22-.34 35.65-.67l8.07-.34c13.79-.34 26.91-.67 39.02-1.34 19.17-.67 39.02-1.35 58.53-2.69 5.05-.34 9.08-.67 12.45-.67l3.7-.34c2.69-.34 4.37-.34 4.37-2.02s-1.34-1.68-4.37-2.02c-1.35 0-2.69 0-4.04-.34-3.36-.34-7.4-.34-12.11-.67-20.18-1.01-39.35-2.02-58.53-2.69-12.78-.34-25.56-1.01-39.02-1.35h-5.72c-12.11-.34-24.89-.67-38.01-.67-4.71 0-9.75 0-14.46-.34-8.07 0-16.15-.34-24.22-.34l-13.79-7.74c-2.35-1.34-4.37-2.69-6.39-4.04l5.72-19.85-19.84 5.72c-1.35-2.02-3.03-4.37-4.04-6.39l-14.46-26.24c-.34-.34-.67-.67-1.35-.67zm-1.68 61.58l-12.11-22.54c-6.05-11.1-15.14-20.18-25.9-25.9l-14.46-7.74c-.34 0-.67 0-.67-.34-8.41 0-16.48-.34-24.55-.34-5.05 0-9.75 0-14.46-.34-12.11 0-24.22-.34-35.65-.67l-8.07-.34c-13.79-.34-26.91-.67-39.02-1.35-12.78-.34-25.9-1.01-39.02-1.68h190.96c3.7 1.68 10.76 5.38 14.8 9.42 3.36 3.36 7.4 10.09 9.42 14.8v37zm0-86.44c-2.02 4.37-6.06 11.44-9.42 14.8-4.04 4.04-11.1 7.4-14.8 9.42H284.89c13.79-.67 25.56-1.34 39.02-1.68 12.78-.34 25.56-1.01 39.02-1.35h5.72c12.11-.34 24.89-.67 38.01-.67 4.71 0 9.76 0 14.46-.34 8.07 0 16.48-.34 24.56-.34.34 0 .67 0 .67-.34l14.13-7.74c11.1-6.06 19.85-15.14 25.9-25.9l12.11-22.54v36.66zm176.59 27.24c-12.11.34-25.23 1.01-39.02 1.35l-8.07.34c-11.44.34-23.55.67-35.65.67-4.71 0-9.76 0-14.46.34-8.07 0-16.15.34-24.55.34-.34 0-.34 0-.67.34l-14.46 7.74c-11.1 6.06-19.85 15.14-25.9 25.9l-12.11 22.54v-36.66c2.02-4.37 6.05-11.44 9.42-14.8 4.04-4.04 11.1-7.4 14.8-9.42h190.04c-13.12.67-25.23 1.34-39.37 1.68zm-150.7-2.69c-3.7-1.68-10.76-5.38-14.8-9.42-3.36-3.36-7.4-10.09-9.42-14.8V69.64l12.11 22.54c6.05 11.1 15.14 20.18 25.9 25.9l14.13 7.74c.34 0 .34.34.67.34 8.41 0 16.48.34 24.56.34 5.04 0 9.75 0 14.46.34 13.12 0 25.56.34 38.01.67h5.72c13.46.34 26.24.67 39.02 1.35 13.45.34 25.56 1.01 39.02 1.68H525.06z"/></svg>
