<svg fill="#000000" viewBox="0 0 24 24" role="img" xmlns="http://www.w3.org/2000/svg"><path d="M11.535 8.114a5.407 5.407 0 0 0-1.49.34c-.131.05-.269.135-.414.079-.654-.153-1.331-.096-1.992-.025-.859.09-1.72-.003-2.579-.045a21.543 21.543 0 0 0-2.349.05c-.713.044-1.429-.01-2.138-.086-.088-.002-.178-.02-.265-.002-.135.088-.22.232-.308.363v.068c.185.158.404.262.625.358-.062.151-.101.31-.13.47.264.124.54.227.796.368-.029.095-.072.186-.083.285-.006.059.024.121.083.142.21.11.448.142.665.23.021.01.05.02.05.048.017.128.02.258.047.385a.173.173 0 0 0 .057.035c.287.095.588.131.881.196.034.11.022.249.106.336.375.196.82.1 1.213.228.098.096.075.29.223.344.296.09.614.01.918.05.069.079.077.193.144.273a.249.249 0 0 0 .169.076c.287.008.562-.087.846-.12.059.099.087.247.213.277.229.045.452-.042.665-.116.08.26.166.521.303.758.473.858 1.288 1.499 2.198 1.841.128.036.172.175.238.276.127-.048.252-.102.384-.134l.2.297c.119-.06.237-.122.356-.184.08.094.16.187.242.28l.31-.22c.09.078.173.164.254.251h.035c.096-.085.187-.177.282-.263.106.077.21.156.316.235.081-.095.163-.19.246-.284.12.06.238.123.357.184.063-.098.124-.196.185-.295.14.031.27.089.404.136.033-.068.065-.138.102-.204.053-.142.22-.164.336-.232.972-.447 1.78-1.286 2.099-2.318.162.06.345.134.517.064.09-.046.125-.144.168-.228.24.053.48.154.73.102.13-.039.194-.161.253-.271.23.03.456.095.69.075.104-.013.247 0 .318-.096.059-.096.067-.215.124-.312.315-.042.648.042.954-.072.096-.108.097-.27.184-.383.247-.018.495 0 .742-.018a.286.286 0 0 0 .215-.123c.056-.107.064-.23.1-.344.007-.024.02-.05.044-.061.241-.1.534-.022.755-.177.108-.12.021-.31.088-.443.207-.118.477-.088.669-.241.129-.11.032-.282.014-.42.225-.077.472-.119.657-.279-.052-.14-.113-.275-.17-.412A4.67 4.67 0 0 0 24 8.871v-.087a1.176 1.176 0 0 0-.272-.34c-.071-.053-.17-.01-.25-.018-.696.062-1.396.13-2.095.092-.417-.022-.833-.062-1.25-.062-.522 0-1.044-.015-1.564.027-.77.046-1.544.103-2.313.017-.657-.077-1.335-.115-1.981.053-.103.043-.211.009-.305-.037-.516-.234-1.077-.348-1.638-.402z"/></svg>
