<svg viewBox="0 -48.24 140.53 140.53" xmlns="http://www.w3.org/2000/svg"><path d="M71.961 42.996c.795 1.498 3.107 1.073 3.437-.433.951 1.386 3.153.739 3.363-.719.921 1.004 2.748.602 3.162-.698.006-.019-.006.019 0 0C88.7 38.359 93.66 33.317 95.6 27.298a2.58 2.58 0 0 0 1.045-.801c2.096.493 4.438 1.479 5.301-.863 1.85.493 5.729 1.784 6.903-1.355 2.712.37 6.656.616 7.15-2.219 2.342 0 6.409-.37 6.409-3.082 2.343 0 6.41-1.603 5.917-3.452 2.096-.246 4.932-2.465 4.932-3.944 2.095-.616 4.438-2.219 3.944-4.314 1.232-.74 3.328-1.603 3.328-2.835s-.986-2.219-2.096-2.219-5.301.254-6.78.254c-1.478 0-19.353-.247-23.544 0-4.191.246-9.492.362-12.081.116-1.907-.184-8.404-.556-12.305.487-8.262-4.094-18.653-4.095-26.917 0-3.9-1.042-10.398-.67-12.306-.489-2.589.247-7.889.13-12.081-.116-4.191-.247-22.066 0-23.545 0s-5.67-.254-6.78-.254S0 3.199 0 4.431c0 1.233 2.096 2.096 3.329 2.835-.494 2.096 1.849 3.698 3.944 4.314 0 1.479 2.835 3.698 4.931 3.944-.493 1.85 3.575 3.452 5.917 3.452 0 2.711 4.068 3.082 6.41 3.082.493 2.835 4.438 2.589 7.15 2.219 1.174 3.14 5.054 1.849 6.903 1.355.863 2.343 3.205 1.356 5.301.863.286.372.646.63 1.045.801 1.94 6.02 6.901 11.062 13.677 13.849.005.019-.006-.019 0 0 .414 1.3 2.241 1.702 3.162.698.21 1.458 2.412 2.104 3.363.719.329 1.506 2.642 1.931 3.436.433.189 1.401 3.204 1.401 3.393.001z"/><path d="M48.939 26.99c.725 1.657 3.016 1.312 4.388.795 1.83 2.784 4.874 5.05 8.622 6.419l-2.977 5.046c-5.787-2.521-10.071-6.741-11.959-11.71a5.99 5.99 0 0 0 1.926-.55z" fill="#fff"/><path d="M58.541 40.56c-6.389-2.698-11.085-7.418-13.03-13.076.321.07.654.097.987.091 1.905 5.147 6.304 9.521 12.254 12.118a2.6 2.6 0 0 0-.211.867z" fill="#fff"/><path d="M61.884 40.711a.085.085 0 0 1-.003.009c-.947 2.33-3.756.982-2.485-1.218l3.027-5.13c.555.188 1.124.356 1.706.506.012.079-2.212 5.727-2.245 5.833z" fill="#fff"/><path d="M65.085 41.436c-.586 2.331-3.396 1.62-2.735-.562l2.406-5.846c.572.13 1.155.24 1.748.329.006.022-1.419 6.079-1.419 6.079z" fill="#fff"/><path d="M68.384 41.804c-.209 2.508-3.288 2.073-2.736-.425 0 .002 1.375-5.935 1.38-5.948.578.073 1.164.129 1.759.163.021.054-.401 6.16-.403 6.21z" fill="#fff"/><path d="M68.92 41.766c0 .001.328-6.071.333-6.086.576.024 1.427.041 2.02-.019.028.052.41 6.042.416 6.091.186 2.455-2.916 2.505-2.769.014z" fill="#fff"/><path d="M81.59 25.638c0-1.966-2.025-3.932-4.274-4.61-.601-.136-.506-.67-.038-.881.45-.204 3.075-2.034 3.038-4.339 0-2.237-2.626-5.627-10.276-5.627-4.5 0-8.25 1.017-10.5 2.916.524.407 1.125 1.017 1.125 1.695v12.407c-.075.746-.45 1.356-1.051 2.034 2.02 1.434 5.637 2.802 10.83 2.785 5.55-.136 11.146-1.77 11.146-6.38z" fill="#fff"/><ellipse cx="70.42" cy="16.214" rx="4.322" ry="3.452"/><ellipse cx="70.977" cy="25.57" rx="4.845" ry="3.644"/><path d="M85.562 13.558c-.886-3.082-3.098-4.336-3.956-4.936-1.725-1.205-1.631-2.986-.157-4.521-7.043-2.969-15.408-2.935-22.368 0 1.474 1.535 1.567 3.316-.157 4.521-.858.6-3.071 1.854-3.956 4.936 7.523-7.753 23.071-7.754 30.594 0z" fill="#fff"/><path d="M91.591 26.99c-.726 1.657-3.017 1.312-4.388.795-1.83 2.784-4.874 5.05-8.623 6.419l2.978 5.046c5.787-2.521 10.07-6.741 11.96-11.71a5.981 5.981 0 0 1-1.927-.55z" fill="#fff"/><path d="M81.989 40.56c6.389-2.698 11.086-7.418 13.03-13.076a4.28 4.28 0 0 1-.987.091c-1.905 5.147-6.304 9.521-12.254 12.118a2.6 2.6 0 0 1 .211.867z" fill="#fff"/><path d="M78.645 40.711l.004.009c.947 2.33 3.756.982 2.485-1.218l-3.027-5.13c-.555.188-1.123.356-1.706.506-.012.079 2.212 5.727 2.244 5.833z" fill="#fff"/><path d="M75.444 41.436c.587 2.331 3.396 1.62 2.735-.562 0 0-2.28-5.543-2.406-5.846-.571.13-1.154.24-1.747.329-.006.022 1.418 6.079 1.418 6.079z" fill="#fff"/><path d="M72.146 41.804c.209 2.508 3.287 2.073 2.735-.425.001.002-1.374-5.935-1.38-5.948-.578.073-1.165.129-1.759.163-.02.054.402 6.16.404 6.21z" fill="#fff"/><path d="M81.929 3.771a6.226 6.226 0 0 1 1.096-.488c-7.892-3.72-17.629-3.72-25.52 0 .41.142.778.304 1.095.488 7.308-3.183 16.085-3.155 23.329 0z" fill="#fff"/><path d="M51.644 19.617c.169-.841.44-1.658.802-2.443-.021-.031-.662-.851-2.241 1.431-.872 1.259.668 1.766 1.439 1.012z" fill="#fff"/><path d="M51.593 23.493c-.65.755-1.263 1.389-1.668 1.895-.846 1.058 1.355 2.362 2.541.858a10.977 10.977 0 0 1-.873-2.753z" fill="#fff"/><path d="M88.886 19.617c-.17-.841-.44-1.658-.803-2.443.021-.031.662-.851 2.241 1.431.873 1.259-.667 1.766-1.438 1.012z" fill="#fff"/><path d="M88.936 23.493c.65.755 1.264 1.389 1.669 1.895.846 1.058-1.355 2.362-2.541.858.411-.881.707-1.803.872-2.753z" fill="#fff"/></svg>
