<svg viewBox="0 -0.01 1013.718 1013.718" xmlns="http://www.w3.org/2000/svg"><linearGradient id="a" gradientUnits="userSpaceOnUse" x1="-1120.126" y1="2189.824" x2="-44.679" y2="1150.587" gradientTransform="matrix(1 0 0 -1 1045.93 2135.176)"><stop offset="0" stop-color="#dff4ff"/><stop offset=".098" stop-color="#d6eaf5"/><stop offset=".268" stop-color="#bfd0d9"/><stop offset=".488" stop-color="#98a5ac"/><stop offset=".747" stop-color="#646b6e"/><stop offset="1" stop-color="#2b2b2b"/></linearGradient><path d="M506.86 0C226.94 0 0 226.918 0 506.848c0 279.927 226.94 506.849 506.86 506.849 279.94 0 506.857-226.922 506.857-506.849C1013.719 226.918 786.802 0 506.86 0zm0 988.352c-265.939 0-481.495-215.573-481.495-481.504 0-265.927 215.556-481.512 481.495-481.512 265.938 0 481.511 215.584 481.511 481.512 0 265.93-215.573 481.504-481.511 481.504z" fill="url(#a)"/><path d="M992.004 506.848c0 267.914-217.228 485.134-485.144 485.134-267.919 0-485.123-217.22-485.123-485.134 0-267.929 217.204-485.133 485.123-485.133 267.916 0 485.144 217.204 485.144 485.133z" fill="#333"/><radialGradient id="b" cx="-1052.247" cy="2101.652" r="720.108" gradientTransform="matrix(1 0 0 -1 1045.93 2135.176)" gradientUnits="userSpaceOnUse"><stop offset="0" stop-color="#fff"/><stop offset=".306" stop-color="#a8a8a8"/><stop offset=".646" stop-color="#4f4f4f"/><stop offset=".885" stop-color="#161616"/><stop offset="1"/></radialGradient><path d="M988.371 506.848c0 265.931-215.573 481.504-481.511 481.504-265.939 0-481.495-215.573-481.495-481.504 0-265.927 215.556-481.512 481.495-481.512 265.938 0 481.511 215.585 481.511 481.512z" fill="url(#b)"/><radialGradient id="i" cx="-943.312" cy="2129.614" r="1202.06" gradientTransform="matrix(1 0 0 -1 1045.93 2135.176)" gradientUnits="userSpaceOnUse"><stop offset=".169" stop-color="#fff"/><stop offset=".556" stop-color="#39c"/><stop offset=".871" stop-color="#292929"/></radialGradient><path d="M203.284 506.853H506.86V203.277c-167.669 0-303.576 135.908-303.576 303.576z" fill="url(#i)"/><radialGradient id="j" cx="-943.312" cy="2129.623" r="1202.037" gradientTransform="matrix(1 0 0 -1 1045.93 2135.176)" gradientUnits="userSpaceOnUse"><stop offset=".169" stop-color="#fff"/><stop offset=".556" stop-color="#39c"/><stop offset=".871" stop-color="#292929"/></radialGradient><path d="M506.86 506.853v303.578c167.667 0 303.576-135.933 303.576-303.578H506.86z" fill="url(#j)"/><path fill="#e6e6e6" d="M812.95 501.458H512.242V200.75h-10.766v300.708H200.768v10.767h300.708v300.717h10.766V512.225H812.95z"/><radialGradient id="d" cx="-1181.576" cy="2174.985" r="1730.313" gradientTransform="matrix(1 0 0 -1 1045.93 2135.176)" gradientUnits="userSpaceOnUse"><stop offset="0" stop-color="#fff"/><stop offset=".557" stop-color="#e9e9e9"/><stop offset=".794" stop-color="#a2a2a2"/><stop offset="1" stop-color="#141414"/></radialGradient><path fill="url(#d)" d="M520.06 170.39l33.533-88.875v88.875h25.47V43.103h-38.279l-34.811 91.133h.33l-34.812-91.133h-38.278V170.39h25.47V81.515l33.536 88.875z"/><radialGradient id="f" cx="-1181.748" cy="2175.493" r="1731.785" gradientTransform="matrix(1 0 0 -1 1045.93 2135.176)" gradientUnits="userSpaceOnUse"><stop offset="0" stop-color="#fff"/><stop offset=".557" stop-color="#e9e9e9"/><stop offset=".794" stop-color="#a2a2a2"/><stop offset="1" stop-color="#141414"/></radialGradient><path d="M276.868 205.563c-10.229-9.951-26.068-12.953-40.916-3.743 2.824-7.364 1.67-14.86.166-18.996-6.415-11.682-8.642-13.137-13.923-17.57-17.096-14.333-35.059-2.095-47.887 13.231l-62.14 74.016 97.653 81.926 65.499-78.059c14.954-17.839 17.283-35.512 1.548-50.805zm-126.316 35.698l37.307-44.453c4.312-5.155 14.086-4.949 20.376.319 6.909 5.806 6.93 14.023 2.268 19.54l-36.873 43.959-23.078-19.365zm102.951 7.393l-38.896 46.352-24.398-20.47 39.207-46.721c4.434-5.269 14.291-6.806 20.953-1.216 7.547 6.32 8.29 15.9 3.134 22.055z" fill="url(#f)"/><radialGradient id="e" cx="-1181.653" cy="2174.985" r="1730.461" gradientTransform="matrix(1 0 0 -1 1045.93 2135.176)" gradientUnits="userSpaceOnUse"><stop offset="0" stop-color="#fff"/><stop offset=".557" stop-color="#e9e9e9"/><stop offset=".794" stop-color="#a2a2a2"/><stop offset="1" stop-color="#141414"/></radialGradient><path fill="url(#e)" d="M869.563 223.844l-43.496 63.449 68.347-33.626 18.52 22.242-107.553 54.012-21.736-26.325 41.7-62.861-.245-.319-69.38 29.698-21.96-26.151 72.531-96.033 18.539 22.234-45.41 61.158 70.26-31.337z"/></svg>
