<svg viewBox="0 0 192.756 192.756" xmlns="http://www.w3.org/2000/svg"><g fill-rule="evenodd" clip-rule="evenodd"><path fill="#fff22d" d="M96.502 27.295c37.248 0 59.059 10.482 62.594 12.32v33.262c0 18.134-4.271 36.199-12.689 53.703-18.426 38.232-46.152 53.244-50.03 55.203-3.881-1.959-31.628-16.971-50.049-55.203C37.91 109.076 33.64 91.011 33.64 72.877V39.619c3.567-1.836 25.607-12.324 62.862-12.324z"/><path d="M31.972 37.971l-.563.319v34.587c0 18.474 4.343 36.867 12.909 54.666 20.109 41.75 51.285 56.355 51.597 56.498l.462.211.461-.211c.315-.143 31.465-14.752 51.573-56.498 8.57-17.799 12.914-36.192 12.914-54.666V38.293l-.557-.32c-.23-.127-23.016-12.912-64.266-12.912-41.247 0-64.301 12.782-64.53 12.91zm64.53-10.676c37.248 0 59.059 10.482 62.594 12.32v33.262c0 18.134-4.271 36.199-12.689 53.703-18.426 38.232-46.152 53.244-50.03 55.203-3.881-1.959-31.628-16.971-50.049-55.203C37.91 109.076 33.64 91.011 33.64 72.877V39.619c3.567-1.836 25.607-12.324 62.862-12.324z"/><path fill="#33a457" d="M161.35 19.963v3.425L96.376 11.926 31.407 23.388v-3.425L96.376 8.504l64.974 11.459z"/><path fill="#cc2131" d="M161.35 26.737L96.376 15.35 31.407 26.737l.001 11.554.563-.319c.229-.128 23.283-12.91 64.53-12.91 41.25 0 64.035 12.785 64.266 12.912l.557.32.026-11.557z"/></g></svg>
