<svg viewBox="0 0 192.756 192.756" xmlns="http://www.w3.org/2000/svg"><g fill-rule="evenodd" clip-rule="evenodd"><path fill="#fff22d" d="M96.502 27.295c37.248 0 59.059 10.482 62.594 12.32v33.262c0 18.134-4.271 36.199-12.689 53.703-18.426 38.232-46.152 53.244-50.03 55.203-3.881-1.959-31.628-16.971-50.049-55.203C37.91 109.076 33.64 91.011 33.64 72.877V39.619c3.567-1.836 25.607-12.324 62.862-12.324z"/><path d="M31.972 37.971l-.563.319v34.587c0 18.474 4.343 36.867 12.909 54.666 20.109 41.75 51.285 56.355 51.597 56.498l.462.211.461-.211c.315-.143 31.465-14.752 51.573-56.498 8.57-17.799 12.914-36.192 12.914-54.666V38.293l-.557-.32c-.23-.127-23.016-12.912-64.266-12.912-41.247 0-64.301 12.782-64.53 12.91zm64.53-10.676c37.248 0 59.059 10.482 62.594 12.32v33.262c0 18.134-4.271 36.199-12.689 53.703-18.426 38.232-46.152 53.244-50.03 55.203-3.881-1.959-31.628-16.971-50.049-55.203C37.91 109.076 33.64 91.011 33.64 72.877V39.619c3.567-1.836 25.607-12.324 62.862-12.324z"/><path fill="#33a457" d="M161.35 19.963v3.425L96.376 11.926 31.407 23.388v-3.425L96.376 8.504l64.974 11.459z"/><path fill="#cc2131" d="M161.35 26.737L96.376 15.35 31.407 26.737l.001 11.554.563-.319c.229-.128 23.283-12.91 64.53-12.91 41.25 0 64.035 12.785 64.266 12.912l.557.32.026-11.557z"/><path d="M106.258 149.551c1.082.748.297 2.047-.504 2.25-.834.227-1.547-.699-1.951.316-.227.545.389 4.674 4.613 4.674 3.943 0 5.824-5.062 6.195-5.824.373-.76.613-1.73.24-1.73-1.73 0-2.234 1.027-2.234 1.027s-.131-.988.729-1.734c.709-.609 1.639-.461 1.975-.461.705 0 .594-.525 1.02-1.564.971-2.445 1.639-2.555 2.27-3.67.523-.908-.465-1.264-2.414-1.447-1.955-.186-3.002-.107-3.875.02-.875.125-1.746.48-2.289 1.818-.291.725.242 1.439 1.266 1.254 1.023-.191 2.008-.965 2.008-.965s-.461 1.832-1.988 2.211c-1.416.348-3.088-.506-2.863-1.939.293-1.859 1.578-3.221 3.922-3.68 2.348-.473 4.688-.111 6.775.402 2.08.525 3.611.207 5.545.094 4.17-.223 6.754-1.207 6.754-1.207s-1.879 1.525-4.484 2.23c-2.605.711-4.928.416-5.68.711-.607.26-1.465 1.465-2.172 2.842-.65 1.266-1.342 2.725-1.043 2.725 2.422.092 3.309-.438 3.309-.438s-.479 1.045-1.633 1.539c-.801.324-2.16.324-2.16.324s-.611 1.547-1.299 2.943c-.693 1.395-1.828 3.574-3.871 4.652-2.051 1.076-5.973 2.418-8.443-1.135-2.613-3.727-.228-7.967 2.282-6.238z"/><path d="M75.933 150.037c.482 1.234-.542 1.877-1.137 1.877-.597 0-1.34-.443-1.495.303-.142.74 1.585 4.557 5.603 4.557 4.02 0 5.883-2.326 5.6-4.41-.315-2.326-4.01-3.25-6.955-4.799-1.441-.756-4.698-1.262-4.698-4.311 0-6.51 9.907-2.352 9.907-2.352s.021-.814.482-.852c.223-.021.671-.109.82.627.147.742.802 4.652.802 4.652s-1.456-2.977-5.452-4.277c-.707-.248-3.798-.836-3.78 1.611.037 1.453 1.808 2.105 4.878 3.297 4.035 1.582 6.102 3.055 5.149 7.297-.907 4.073-4.889 4.743-6.825 4.743-1.932 0-6.378-1.355-6.378-5.824 0-3.16 3.1-3.086 3.479-2.139z"/><path d="M97.102 125.559l1.627.771c.938.363 1.537.203 1.752.113.227-.098 1.086-1.02 1.273-1.805.088-.32.041-.598-.129-.803-.633-.75-1.754-4.195-2.17-6.057-.154-.691.033-2.598.178-4.133.127-1.318.205-2.137.139-2.348-.111-.326-.598-.641-1.158-.996l-.887-.604c-.473-.387-.494-.914-.52-1.48l-.094-.879c-.206-.818-4.369-5.07-5.014-5.109-.935-.061-1.178.965-1.238 1.582-.037.361.38 1.973.756 3.402l.415 1.723c.426 2.709 3.306 7.48 4.534 9.516l.583.99c.252.574.154 1.027-.294 1.281-.435.25-4.178-.141-5.966-.553-.768-.176-1.716-.559-2.641-.934-1.059-.422-2.063-.832-2.643-.861-.677-.035-.998.102-1.247.217l-.406.113-.404-.129c-.496-.219-1.423-.619-3.954-.848-3.689-.346-3.966.396-4.116.797-.183.51 2.072 2.908 2.475 3.229.513.414 2.172 1.045 3.185.877 1.158-.186 3.046-.42 3.28-.373l.38.232.353.25c.32.131 2.382.244 3.005.277.719.039 2.607.43 3.987.719l1.542.311c.604.111 2.16.879 3.417 1.512z"/><path d="M135.264 77.716c-.082-.101-.15-.107-.193-.096-.039.013-.092.05-.107.17-.068.514-.713 1.835-1.225 2.03-1.037.401-1.574 1.617-1.963 2.503-.199.457-.393.893-.547.899-.066.005-.139-.066-.219-.214-.639-1.102-.281-2.787.006-4.145l.066-.333c.234-1.145 1.574-2.749 2.375-3.711l.354-.426c.545-.68.682-2.984.58-3.157-.033-.01-.055.009-.068.029l-.043.048c-.033.036-.061.04-.088.156-.143.72-1.459 2.183-3.707 4.127-.461.399-.986 1.12-1.416 1.699-.277.38-.602.818-.688.839-.557-2.972.451-4.671.93-5.492l.223-.417c.951-2.588 3.4-4.548 3.426-4.566.033-.075.033-.155-.027-.206-.094-.072-.266-.041-.537.095l-.148.074c-.854.415-3.43 1.67-5.01 4.692-1.135 2.176-1.574 4.608-1.574 6.442 0 .936.113 1.712.305 2.226.555 1.48 1.527 5.158 1.826 6.602.186.895.215 3.968.215 5.894 0 .941-.004 1.6-.004 1.625-.006 0-.49 1.562-.49 1.562-.002.016-.236 1.236-2.23 3.275-2.008 2.051-4.244 2.703-4.264 2.711-.898.07-1.717.033-1.746-.084 0-2.344-4.014-7.797-6.068-9.596-2.096-1.837-3.771-3.153-6.617-4.885-2.898-1.764-6.121-9.159-6.158-9.231l-.279-.999s-.156-1.995-.199-2.514c.105.06.242.145.242.145l.988.575 1.135.436 1.486.292.826.426.766.498 1.191.86 1.223.643 1.469.081.033-.119s-1.672-.785-1.676-.785l-.602-1.054-.701-1.009-.869-.521-1.076-.152-.32-.288.271-.165 1.156.146 1.025.709 1.119.862 1.059.413.137.054-.457-1.189-.863-.815-1.268-1.078-.996-.517-1.062-.357-1.113-.712s.012-.076.02-.141l1.541.616 1.342.364 1.119.428 1.609.783 1.35.297 1.648-.29 1.57-1.088.303-.67.061-.148-.498.206-1.408.712-.971.217-1.098-.22-.889-.84-1.262-1.222-1.141-.584-1.35-.223-.826-.423c.004 0 .006-.015.006-.036l-.035-.412 1.678.141 1.838-.148 1.035.216 1.047.432 1.072.145.193.026-1.195-1.143-1.205-.868-1-.368-1.695-.146c.014-.001.016-.029.016-.07l-.025-.315.777-.132 1.244.285 1.178.711 1.273.435 1.859-.285.109-.015-.555-.733-.949-.309-.756-.564-1.127-.792-.857-.295-1.344-.218-.666-.624c.02-.004.061-.213.076-.308l.701.196.902.43 1.281.406-.283-.565-.498-.52-.436-.562.189-.047 1.363.712 1.062.362.82.775 1.564.886.156.088-.283-.758-.85-1.094-.701-1.212-1.275-1.305-1.631-.875-.615-.704-1.127-1.151c0-.015-.115-.409-.174-.609l1.094.361 1.264.357.902.565.752.919 1.225.525 3.053.396.178.022-.838-.882-1.639-.735-.971-.708-.543-.987-.566-1.004-.924-.876-1.139-.656-1.113-.926c0-.009-.268-.564-.439-.934l.773.745 1.477 1.293 1.145.514.965.78 1.121 1.144 1.791.265.219.032-1.779-1.541-.402-1.263-.932-.889-.484-.569-.482-1.484-1.002-1.027-1.611-1.513v-.003l-.09-.403.291.151 1.475.859 1.77.509 1.832.434 2.117.338-.498-1.007-1.088-.461-.977-.57-1.203-.507-1.051-.43c0-.01-.682-.89-1.062-1.376l.928.628.947.082 2.885.001 1.168.641.996 1.078.131.141-.121-1.212-.645-.826-1.709-.948-1.344-.506-2.045-.361v-.003l-.387-.48-1.482-1.368-.717-.369-.365-.381h.758l1.162.71 1.561.507 1.979.289.734.843 1.07.657 1.219.217.17.027-2.504-3.068-1.213-.66-1.414-.437-1.236-1.417-1.562-.946-1.125-.274c.07-.113.303-.497.303-.499l1.24-.548 1.812-.354.186-.475-.797-.575-.928-.296-.547.296-1.516.06-1.812-.429-1.867-1.565-.859-.438-3.113-.365-.725-1.121-.992-1.084-1.263-1.142-.039.083-.422.934-.416.637v.016l.059.743c.018.039.426.457.435.469l-.154.655-1.695.024-1.379-.641-1.066-.364-2.48.069-.471.674-.056.085 1.082.156.249.163-.277.226-1.505-.083-1.084.433-.11.047.525.353 2.282.083 1.67.43.318.477s.226.319.311.444l-.715.394-2.032.86-4.219 2.369-2.778.41-1.086.6-.878 1.201-.493 1.49c-.038 2.506.062 2.564.098 2.584.083.052.807.462 1.367.162.634-.345 1.991-.684 2.696-.834.348-.071.511.054.54.183.038.141-.067.333-.327.404l-.146.043c-1.226.333-2.477.736-2.436 1.209l.216.361c.547.399 1.969.21 2.724.039l.788-.221c.68-.207 1.453-.438 2.113-.364.381.044.717.208 1.114.395.538.26 1.153.555 2.07.615 1.529.106 2.573.415 2.655.505.205.417.073 1.034-.03 1.53l-.079.449c-.428 3.881-4.761 8.269-6.849 10.374-.564.57-.937.946-1.017 1.103l-.24.555c-.203.515-.368.959-1.03 1.225-.383.149-1.276.821-2.312 1.597-1.496 1.116-3.351 2.504-3.862 2.444-.855-.101-4.848-2.85-5.016-3.019-3.889-3.763-5.516-2.991-6.49-2.531l-.154.072c-1.16.528-2.378 3.814-2.488 4.519l-.47 2.024-.361 1.487c-.107.503-.586 1.739-1.043 2.933l-.938 2.6c-.155.602-.531 1.448-.837 2.132l-.415 1.013c-.289 1.189-.294 7.701.209 8.277l.022.024.099.029c.505-.052 1.589-1.169 2.109-1.708l.12-.125c.44-.442.907-1.622.907-2.118 0-.486-.227-1.502-.317-1.779-.704-2.15-.438-4.199-.31-5.181l.051-.438c.037-.456.494-.961.938-1.445l.561-.649c.308-.41.65-.546.955-.667l.501-.286.078-.081c.332-.333.889-.895 1.133-1.647l.476-2.059.104-.55c.024-.11.08-.171.173-.191.189-.042.472.108.593.269l3.442 3.994c.882.751 1.788 1.647 1.788 1.844l-.001.017-.021.001c-.482.05-2.907-.467-3.31-.582-3.295-.966-4.799-.796-5.959.656-1.322 1.663-.906 6.756-.636 7.314.248.506 1.454 6.711 1.508 7.538.054.811.368 2.261.696 2.594l.09.092c.406.402 1.476 1.477 1.665 2.537.204 1.154 2.655 4.244 3.59 4.521a.46.46 0 0 0 .412-.08c.713-.506 1.037-2.979 1.076-4.023.046-1.301-.421-1.93-.917-2.603l-.19-.263c-.365-.498-1.008-.679-1.432-.798-.181-.051-.429-.111-.429-.167 0-.019-.05-1.925-.658-2.293-.473-.291-.957-2.13-1.014-2.83-.055-.695-.324-2.373-.685-3.11-.365-.74-.672-2.104-.516-3.156.065-.452.387-.594.649-.635.452-.072.974.123 1.055.281.18.362 3.655 2.458 4.827 2.908.728.276 1.713 1.108 2.583 1.85.619.519 1.151.966 1.483 1.125.448.216 1.718.241 2.738.261.541.009 1.103.022 1.179.067-.414.166-.409.892-.375 1.126.423 3.003 11.348 11.252 12.193 11.715.978.525 4.486 4.188 4.793 4.686.318.492.627 1.027.568 1.439-.084.609.16 1.305.648 1.873.467.529 1.076.848 1.639.848.488 0 .814-.438 1.055-.754l.051-.066c.652-.863 1.619-2.127 1.744-4.104.133-2.027 1.059-2.832 1.361-2.885.135-.025.234.016.27.105.037.092-.008.246-.191.367-.4.271-.65 1.168-.924 2.127l-.102.979c-.023.725-.051 1.547-.775 2.344-1.084 1.174-2.328 3.881-2.65 7.299-.195 2.059.732 5.025 2.754 8.805l.141.27.547.918c.553.889 1.477 2.367 1.434 2.713-.059.488-.105.871-.947 1.928-.926 1.162-4.305 5.094-4.635 5.156-.672 0-.785.086-1.326.496l-.57.434c-.624.443-.733.775-.838 1.068-.077.221-.15.414-.44.631l-.217.146c-.045.039-.167.211-1.525 1.57-1.557 1.539-2.252 3.281-2.012 5.012.077.541.543.73 1.925.793 1.38.064 4.544-2.15 4.685-2.871l.049-.275c.121-.65.324-1.746.682-1.904.432-.189 1.172-1.043 1.715-1.664l.105-.117c.289-.334.359-.666.428-.982.059-.25.113-.502.277-.732.129-.168.318-.26.537-.361.42-.201.949-.457 1.33-1.414.379-.938 2.641-2.561 4.293-3.742.844-.6 1.506-1.08 1.664-1.291.217-.283.35-.828.35-1.406 0-.686-.184-1.416-.615-1.822-.627-.582-1.217-2.314-1.393-2.857v-.012c0-.225-.021-.637-.055-1.404l-.004-.105c0-2.029 3.016-4.014 4.318-4.869l.594-.41c4.721-4.164 5.645-7.33 5.82-8.199l.096-1.041c.029-.721.053-1.408.488-1.498.17-.033.453.104.625.309.098.111.242.342.146.609-.215.584-.287 6.455-.289 6.699l.508.621.09.105.027-.137c.006-.068.277-1.668.277-2.234 0-.633 1.018-3.344 1.264-3.391l.016.031c.119.375.271 1.301.271 2.277 0 .959-.145 1.967-.611 2.551-.707.875-1.27 2.26-1.637 3.174l-.34.777a.865.865 0 0 0-.049.336c0 .744.383 2.33.635 2.625.066.07.119.07.156.057.082-.031.156-.137.156-.76 0-2.373 1.994-4.094 2.018-4.107 1.758-1.395 2.141-3.982 2.141-5.953 0-1.492-.219-2.631-.225-2.662l-.844-1.23c.041.02.27-.168.346-.229l.877 1.16c.135.189.477.74.477.959 0 1.221.188 2.057.322 2.67l.033.145c.141.65 1.02 2.727 1.059 2.816l.094.219.029-.238c0-.01.139-1.096 0-2.025-.08-.521.02-1.16.121-1.85l.16-1.584c0-1.287-.184-2.1-.643-2.84l-.234-.355c-.092-.145-.182-.287-.172-.316l.172-.074c3.713-1.26 5.441-3.994 6.145-5.508.738-1.604.777-4.074.777-4.549 0-.619-.027-3.829-.566-5.478-.316-.973-.215-2.018-.109-3.146l.115-1.931c0-1.321.695-2.302 1.369-3.25l.803-1.244c.525-1.036.246-1.943.035-2.202z"/><path d="M93.703 36.369l.851-.371c.035-.071-.148-.818-.148-.818l-1.717-2.019-.085-.099-.029.124-.184.809-.545 1.298-.025.055 1.15.588.732.433z"/></g></svg>
