<svg xmlns="http://www.w3.org/2000/svg" viewBox="0 0 461.587 708.661"><g transform="translate(-309.936,165.423)"><g transform="matrix(7.16583,0,0,7.16583,-1911.009,-3349.513)"><path d="M373.703 493.795c0 27.059-14.217 48.804-31.559 48.804-17.349 0-31.567-21.745-31.567-48.804 0-27.068 14.218-48.813 31.567-48.813 17.342 0 31.559 21.745 31.559 48.813" fill="#fff"/><path d="M337.68 498.128h9.323v2.294h-9.323z" fill="#e21a22"/><path d="M338.818 501.324h7.055v2.556h-7.055z" fill="#e21a22"/><path d="M328.489 487.448h27.714v1.147h-27.714z" fill="#e21a22"/><path d="M327.013 489.628h30.661v1.147h-30.661z" fill="#e21a22"/><path d="M326.973 485.304h30.666v1.147h-30.666z" fill="#e21a22"/><path d="M347.187 493.261c-1.541 1.401-1.532 3.922-1.532 3.922h-3.31-3.3s.01-2.521-1.531-3.922c-1.072-.98-2.383-1.19-2.383-1.19-.859-.167-.86-.272-.86-.324h16.146s0 .149-.858.324c0 0-1.304.21-2.372 1.19" fill="#e21a22"/><path d="M328.62 491.747c.324 0 2.872 0 3.327 0 0 1.97-1.275 2.854-3.327 2.416 0-1.26 0-1.777 0-2.416" fill="#e21a22"/><path d="M340.411 459.961c1.331-2.626 1.585-6.566 1.917-6.636.333.07.587 4.01 1.917 6.627 1.252 2.477 3.94 4.57 3.782 4.815-.184.306-1.672-.464-2.425-.805-1.199-.569-2.171-.998-2.171-.998s-.481 6.277 1.051 12.054c1.252 4.736 4.246 9.052 4.517 9.428h-3.817c-.122-.201-.245-.394-.35-.595-1.042-1.83-1.786-3.414-2.504-6.146-.726 2.731-1.453 4.316-2.495 6.146-.114.201-.228.394-.35.595h-3.823c.272-.376 3.271-4.692 4.523-9.428 1.524-5.769 1.051-12.054 1.051-12.054s-.981.438-2.18.998c-.744.35-2.232 1.111-2.424.805-.148-.245 2.54-2.337 3.782-4.806" fill="#e21a22"/><path d="M328.487 484.446c-.015-.464-.255-6.82-1.746-11.81-1.633-5.471-4.914-8.727-4.694-9.051.201-.306 2.917.244 4.953 1.645 2.173 1.497 4.305 3.966 4.148 4.15-.096.114-.83-.499-2.152-.989-1.407-.525-2.022-.429-2.022-.429s2.333 3.861 3.489 8.045c.969 3.51 1.474 8.045 1.5 8.439h-3.476" fill="#e21a22"/><path d="M356.212 484.446c.017-.464.254-6.82 1.751-11.81 1.629-5.471 4.911-8.727 4.692-9.051-.201-.306-2.915.244-4.954 1.645-2.171 1.497-4.307 3.966-4.149 4.15.096.114.831-.499 2.153-.989 1.41-.525 2.022-.429 2.022-.429s-2.337 3.861-3.493 8.045c-.963 3.51-1.471 8.045-1.497 8.439h3.475" fill="#e21a22"/><path d="M356.081 491.747c-.324 0-2.871 0-3.327 0 0 1.97 1.278 2.854 3.327 2.416 0-1.26 0-1.777 0-2.416" fill="#e21a22"/><path d="M342.144 444.343c17.92 0 32.206 22.314 32.206 49.452 0 27.138-14.286 49.443-32.206 49.443-17.929 0-32.209-22.305-32.209-49.443 0-27.138 14.28-49.452 32.209-49.452zm0 .796c-17.214 0-31.417 21.605-31.417 48.656 0 27.041 14.203 48.655 31.417 48.655 17.211 0 31.41-21.614 31.41-48.655 0-27.051-14.199-48.656-31.41-48.656" fill="#09264a"/><path d="M313.764 503.889h56.752s-1.12 15.127-9.778 26.192c-6.146 7.861-13.718 10.374-18.533 10.374-5.348 0-12.342-2.337-18.543-10.417-8.562-11.144-9.898-26.149-9.898-26.149" fill="#0c2e59"/><path d="M323.663 508.765l-2.08 5.313h-.342l-2.013-5.305-.22 4.097c-.012.07-.025.271-.025.429 0 .359.476.376.733.376h.068v.403h-2.342v-.394c.19-.009.718-.009.878-.201.115-.149.14-.412.187-.99l.193-3.86c.027-.324-.003-.447-.089-.508-.135-.105-.565-.114-.713-.123v-.394h2-.01l1.805 4.701 1.845-4.701h1.964v.394h-.067c-.418 0-.597.009-.682.105-.087.097-.098.298-.064.806l.21 3.738c.013.219.021.665.149.849.155.228.565.184.783.175v.403h-2.865v-.394c.208-.017.518-.026.708-.114.141-.061.225-.166.225-.376 0-.097-.013-.376-.026-.473l-.21-3.957" fill="#fff"/><path d="M336.726 507.583h.332l.14 1.593h-.368c-.201-.595-.584-1.331-1.344-1.331-.5 0-1.004.421-1.004.867 0 .28.074.473.314.709.361.368.922.736 1.34 1.042.668.49 1.184 1.042 1.184 1.961 0 .998-.881 1.873-1.992 1.873-.405 0-.771-.14-1.153-.254l-.075-.026h-.072c-.113 0-.099.044-.113.131h-.33l-.184-1.707h.387c.191.596.683 1.41 1.434 1.41.361 0 1.201-.254 1.201-1.05 0-.368-.124-.631-.361-.893-.242-.254-.6-.508-1.067-.823-1.181-.814-1.41-1.41-1.41-1.996 0-.972.966-1.681 1.769-1.681.31 0 .609.062.865.149l.204.096.118.044.043.018c.062 0 .105-.088.14-.131" fill="#fff"/><path d="M329.305 508.476l-.841 2.398h1.617l-.776-2.398zm-.268-.596l-.153-.481h1.087l1.817 5.471c.215.63.193.762.951.814v.394h-2.883v-.394c.199-.009.467-.009.655-.07.143-.053.227-.131.227-.306 0-.193-.088-.499-.179-.78l-.381-1.19h-1.809c-.19.543-.489 1.27-.52 1.856-.02.359.219.412.498.447l.35.035.059.403h-2.395v-.386c.501-.114.668-.219.854-.674.058-.14.116-.315.189-.516l1.635-4.623" fill="#fff"/><path d="M341.882 508.082h-1.357v2.468h1.199c.254 0 .376 0 .464-.079.14-.131.157-.551.166-.709h.385v2.101h-.385c-.027-.727.008-.84-.719-.84h-1.112v2.022c0 .333.009.447.062.499.07.079.367.061.455.061h.998c.814 0 .919-.429 1.094-1.208h.376l-.149 1.681h-4.85v-.403c.753.035.928-.044.928-.771v-4.123c0-.762-.228-.789-.928-.771v-.403h4.622l.053 1.524h-.367c-.131-.789-.158-1.051-.946-1.051" fill="#fff"/><path d="M357.332 509.158h-.341l.122-1.751h.289c.044.088.07.14.166.175.035.018.079.026.149.026h.236l3.633 0c.218 0 .333-.009.394-.035.07-.027.088-.097.114-.167h.289l.149 1.751h-.368c-.044-.219-.14-.753-.332-.954-.123-.114-.263-.122-.517-.122h-1.024v4.745c0 .438.035.613.157.709.175.131.744.14.919.149v.394h-3.231v-.394c.166-.009.762-.018.928-.14.114-.088.149-.245.149-.657v-4.806h-.91c-.368 0-.622-.026-.753.341-.088.236-.149.49-.219.736" fill="#fff"/><path d="M363.513 507.609h3.029v.394c-1.042.053-.972.219-.972 1.217v3.537c.061.84.192.867 1.007.928v.394h-3.021v-.394c.21-.018.447-.018.648-.079.088-.026.105-.053.149-.123.122-.245.131-.735.131-1.339v-3.213c0-.822-.175-.866-.973-.928v-.394" fill="#fff"/><path d="M346.854 510.831h.682c.263-.009.508-.009.744-.158.254-.158.482-.508.482-1.287 0-1.19-.692-1.392-1.243-1.392-.21-.009-.499.009-.665.009v2.828zm6.688-2.355l-.84 2.398h1.619l-.779-2.398zm.665-1.077l1.821 5.471c.215.63.193.762.95.814v.394h-2.883v-.394c.267-.009.889.035.889-.376 0-.193-.097-.499-.184-.78l-.376-1.19h-1.812c-.21.587-.464 1.227-.517 1.864-.043.508.561.473.904.482v.394h-2.32c-.911.035-1.643-.219-2.212-1.2-.14-.245-.665-1.295-.832-1.584l-.77 0v1.383c0 .867.079.998.595.998h.464v.403h-3.142v-.403c.779.035.971-.053.971-.806v-4.272c0-.414.018-.578-.394-.614-.192-.008-.385-.008-.577-.008v-.394c.814-.017 1.646-.009 2.451-.009.5 0 .972-.026 1.462.123.578.184 1.112.621 1.112 1.593 0 1.173-.665 1.55-1.13 1.751.219.219.342.403.78 1.436.446 1.024.63 1.173 1.155 1.252.604-.027.727-.386 1.024-1.226l1.637-4.623-.158-.481h1.085" fill="#fff"/></g></g></svg>
