<svg width="64" height="64" viewBox="0 0 64 64" xmlns="http://www.w3.org/2000/svg"><defs><linearGradient id="outer_1_" gradientUnits="userSpaceOnUse" x1="7.998" y1="54.102" x2="56.002" y2="13.898" gradientTransform="matrix(1 0 0 -1 0 66)"><stop offset="0" stop-color="#ffffff"/><stop offset=".1" stop-color="#e7e8e6"/><stop offset=".1" stop-color="#cdd0d0"/><stop offset=".2" stop-color="#b5bbbd"/><stop offset=".2" stop-color="#a5acaf"/><stop offset=".3" stop-color="#9ba3a7"/><stop offset=".3" stop-color="#98a0a4"/><stop offset=".4" stop-color="#828a8f"/><stop offset=".5" stop-color="#667075"/><stop offset=".6" stop-color="#535c63"/><stop offset=".7" stop-color="#475158"/><stop offset=".8" stop-color="#434d54"/><stop offset="1" stop-color="#475157"/></linearGradient></defs><path d="M63.3 32c0 17.3-14 31.3-31.3 31.3S.7 49.3.7 32 14.7.7 32 .7s31.3 14 31.3 31.3zM32 2.6C15.7 2.6 2.6 15.7 2.6 32S15.8 61.4 32 61.4c16.3 0 29.4-13.2 29.4-29.4C61.4 15.7 48.3 2.6 32 2.6z" fill="url(#outer_1_)"/><path d="M32 2.6C15.7 2.6 2.6 15.7 2.6 32S15.8 61.4 32 61.4c16.3 0 29.4-13.2 29.4-29.4C61.4 15.7 48.3 2.6 32 2.6zm0 56.9C16.8 59.5 4.5 47.2 4.5 32S16.8 4.5 32 4.5 59.5 16.8 59.5 32 47.2 59.5 32 59.5z" fill="#555"/><path d="M2.2 32.1C2.2 15.7 15.5 2.2 32 2.2s29.8 13.4 29.8 29.9c0 16.4-13.3 29.7-29.8 29.7S2.2 48.5 2.2 32.1zm9.3-20.6c-5.3 5.3-8.6 12.6-8.6 20.6 0 8 3.3 15.3 8.5 20.5 5.3 5.2 12.6 8.5 20.6 8.5 8 0 15.3-3.2 20.5-8.5 5.3-5.2 8.5-12.5 8.5-20.5s-3.3-15.3-8.5-20.6C47.3 6.2 40 2.9 32 2.9s-15.3 3.3-20.5 8.6z" fill="#fbfbfb"/><path d="M56.3 45c-.5-.4-19.8-15.7-19.8-15.7L32 3.6c-.3.1-.7.4-.9.8l-3.2 25L8 44.7s-.4.5-.6.8c-.1.2-.1.5-.1.8l24.6-10.1 24.6 10.1c.2-.5 0-1-.2-1.3z" fill="#fff"/><path d="M32.2 32.8l-.2 4.6 22.6 9.1c.8.4 1.4.2 2-.2L32.5 32.7c-.1-.1-.3 0-.3.1z" fill="#565f64"/><path d="M31.7 32.8c0-.1-.1-.2-.2-.1L7.3 46.4c.6.4 1.2.5 2 .2l22.6-9.1-.2-4.7z" fill="#565f64"/><path d="M32.5 31.3l-.1.1s0 .2.2.1c.1-.1 3-1.6 4-2.2l-3.5-24c-.1-.9-.5-1.3-1.2-1.6l.4 27.8.2-.2z" fill="#565f64"/><path d="M7.9 44.8l20.4-14.7c1.1.6 2.9 1.4 3.1 1.4.2.1.2-.1.2-.1l-2.5-2.1c-.3-.2-.4-.5-.4-.8l2.4-24.1c-.1.1-.1.3-.2.4-.1.2-.1.3-.1.5l-3.5 24.1L8.1 44.5c-.1.1-.2.2-.2.3z" fill="#333f47"/></svg>
